<svg width="7" height="10" viewBox="0 0 7 10" fill="none" xmlns="http://www.w3.org/2000/svg">
<path d="M2.7364 6.34803C2.7364 6.03603 2.7884 5.76403 2.8924 5.53203C2.9964 5.30003 3.1244 5.09203 3.2764 4.90803C3.4364 4.72403 3.6084 4.55603 3.7924 4.40403C3.9764 4.24403 4.1484 4.08803 4.3084 3.93603C4.4684 3.77603 4.5964 3.60803 4.6924 3.43203C4.7964 3.25603 4.8484 3.05203 4.8484 2.82003C4.8484 2.43603 4.6964 2.12403 4.3924 1.88403C4.0884 1.64403 3.6684 1.52403 3.1324 1.52403C2.6524 1.52403 2.2364 1.60403 1.8844 1.76403C1.5324 1.92403 1.2324 2.16003 0.984398 2.47203L0.108398 1.84803C0.444398 1.42403 0.872398 1.09603 1.3924 0.864028C1.9124 0.624028 2.5204 0.504028 3.2164 0.504028C3.7924 0.504028 4.2924 0.592028 4.7164 0.768028C5.1404 0.936028 5.4684 1.18003 5.7004 1.50003C5.9404 1.81203 6.0604 2.19203 6.0604 2.64003C6.0604 2.97603 6.0084 3.26403 5.9044 3.50403C5.8004 3.74403 5.6684 3.95603 5.5084 4.14003C5.3484 4.32403 5.1764 4.49603 4.9924 4.65603C4.8164 4.81603 4.6484 4.97603 4.4884 5.13603C4.3284 5.29603 4.1964 5.47203 4.0924 5.66403C3.9884 5.85603 3.9364 6.08403 3.9364 6.34803H2.7364ZM3.3484 9.07203C3.1244 9.07203 2.9364 8.99603 2.7844 8.84403C2.6404 8.69203 2.5684 8.51203 2.5684 8.30403C2.5684 8.08003 2.6404 7.89603 2.7844 7.75203C2.9364 7.60803 3.1244 7.53603 3.3484 7.53603C3.5724 7.53603 3.7564 7.60803 3.9004 7.75203C4.0444 7.89603 4.1164 8.08003 4.1164 8.30403C4.1164 8.51203 4.0444 8.69203 3.9004 8.84403C3.7564 8.99603 3.5724 9.07203 3.3484 9.07203Z" fill="black"/>
</svg>
